<svg width="32" height="32" viewBox="0 0 32 32" fill="none" xmlns="http://www.w3.org/2000/svg">
<path d="M16 0.5C24.5604 0.5 31.5 7.43959 31.5 16C31.5 24.5604 24.5604 31.5 16 31.5C7.43959 31.5 0.5 24.5604 0.5 16C0.5 7.43959 7.43959 0.5 16 0.5Z" stroke="#403232"/>
<path d="M25.9883 15.6705C25.9883 16.9765 25.5216 17.8682 24.5842 18.3417C24.312 18.4798 23.4524 18.6692 22.0094 18.9059C21.0721 19.0637 20.6053 19.4307 20.6053 20.0028V22.4056C20.6053 22.5042 20.6364 22.812 20.6948 23.3249L20.7842 24.2758C20.7842 24.5717 20.7142 25.057 20.5781 25.7317C20.2086 25.8106 19.7769 25.9014 19.2907 26C19.1351 25.4042 19.0573 25.0018 19.0573 24.7808C19.0573 24.6822 19.0807 24.5323 19.1312 24.335C19.1779 24.1377 19.2051 23.9878 19.2051 23.8891C19.2051 23.751 19.0845 23.3644 18.8395 22.7331H18.3844C18.3261 22.8317 18.3028 22.9619 18.3222 23.1197C18.4 23.4551 18.4311 23.7431 18.4117 23.9799C18.0811 24.2166 17.6221 24.5362 17.0348 24.9308C16.8987 24.8913 16.8481 24.8716 16.887 24.8716V22.7646C16.8481 22.666 16.7509 22.6266 16.5953 22.6463H16.2452L15.8952 25.4358C15.6229 25.4555 15.2884 25.4555 14.8995 25.4358C14.7634 24.7848 14.5183 23.8142 14.1683 22.5279H13.9349C13.721 23.2223 13.6043 23.5972 13.5849 23.6563C13.5849 23.7353 13.6082 23.8891 13.6588 24.118C13.7054 24.3468 13.7327 24.5007 13.7327 24.5796C13.7327 24.6388 13.7132 24.7887 13.6743 25.0254L13.5849 25.7396C13.546 25.7791 13.4954 25.7988 13.4371 25.7988C12.8536 25.7988 12.4608 25.6488 12.2663 25.3529C12.0719 25.057 11.9941 24.6388 12.033 24.1061L12.2663 20.5433C12.2663 20.4841 12.2858 20.4052 12.3247 20.3066C12.3636 20.2079 12.383 20.1369 12.383 20.0975C12.383 19.9396 12.2158 19.624 11.8852 19.1466C11.8268 19.1268 11.5234 19.0558 10.9789 18.9375C10.6483 18.8586 9.99488 18.7205 9.01863 18.5232C7.67288 18.2667 7 17.1699 7 15.2286C7 12.3405 8.17073 9.93371 10.5122 8.01618C10.6094 8.54883 10.7767 9.26297 11.01 10.1547C11.1851 10.1941 11.5662 10.2849 12.1496 10.423C12.2663 10.4624 12.8614 10.6794 13.9349 11.0779C13.3865 10.7426 12.6747 10.1981 11.7996 9.44447C11.469 9.04991 11.3017 8.38706 11.3017 7.45591C11.3017 7.2389 11.6712 6.98244 12.4141 6.68258C13.0753 6.40639 13.5771 6.24857 13.9077 6.20911C14.9617 6.07102 15.7707 6 16.3386 6C18.7773 6 20.7492 6.63523 22.2506 7.90176C21.7644 8.47781 20.9243 9.08937 19.7341 9.74038C20.2047 9.76011 20.8854 9.57467 21.7838 9.17617C22.6823 8.78161 23.0635 8.58434 22.9234 8.58434C23.079 8.58434 23.3941 8.89998 23.8608 9.53521C24.2108 10.0087 24.4948 10.4348 24.7087 10.8136C25.331 11.942 25.7511 13.1612 25.9689 14.4672C25.9689 14.9248 25.9767 15.2484 26 15.4456V15.6824L25.9883 15.6705ZM14.7789 16.2032C14.7789 15.351 14.4133 14.5461 13.6821 13.7846C12.9509 13.0231 12.1652 12.6404 11.3251 12.6404C10.5822 12.6404 9.92876 12.96 9.36479 13.5952C8.79693 14.2344 8.51689 14.9406 8.51689 15.7179C8.51689 16.3965 8.83971 16.8345 9.48147 17.0318C9.88987 17.1501 10.4655 17.2211 11.2084 17.2409H12.8186C14.1255 17.2606 14.7789 16.9134 14.7789 16.2032ZM17.9683 19.8844V18.9651C17.8321 18.7086 17.696 18.4403 17.5599 18.1641C17.4432 17.7696 17.2293 17.2133 16.9142 16.5031L16.5914 19.9751C16.5914 20.2513 16.5331 20.3894 16.4164 20.3894C16.3386 20.3894 16.2802 20.3697 16.2414 20.3302C16.1052 18.2312 16.0352 17.3237 16.0352 17.5999V16.5622C15.9963 16.5031 15.9496 16.4715 15.8913 16.4715C15.2262 17.1659 14.8956 18.2825 14.8956 19.8252C14.8956 20.6775 14.9734 21.2022 15.129 21.3995C15.2845 21.36 15.4596 21.289 15.654 21.1904C15.7318 21.1509 15.9574 21.1312 16.3269 21.1312C16.6964 21.1312 17.1476 21.2496 17.6727 21.4863C17.8671 21.4863 17.9644 20.9536 17.9644 19.8844H17.9683ZM24.5803 15.7495C24.5803 14.9525 24.2886 14.2423 23.7013 13.6149C23.114 12.9876 22.4411 12.6759 21.6827 12.6759C20.862 12.6759 20.0958 13.0546 19.384 13.8201C18.6723 14.5816 18.3144 15.3786 18.3144 16.2111C18.3144 16.9055 18.645 17.2488 19.3101 17.2488H22.6745C23.9425 17.229 24.5765 16.7319 24.5765 15.7534" fill="#403232"/>
</svg>
