<svg width="32" height="32" viewBox="0 0 32 32" fill="none" xmlns="http://www.w3.org/2000/svg">
<path d="M16 0.5C24.5604 0.5 31.5 7.43959 31.5 16C31.5 24.5604 24.5604 31.5 16 31.5C7.43959 31.5 0.5 24.5604 0.5 16C0.5 7.43959 7.43959 0.5 16 0.5Z" stroke="black"/>
<path d="M16 9.5C19.5899 9.5 22.5 12.4101 22.5 16C22.5 19.5899 19.5899 22.5 16 22.5C12.4101 22.5 9.5 19.5899 9.5 16C9.5 12.4101 12.4101 9.5 16 9.5Z" stroke="black"/>
<path d="M16 5V13.5" stroke="black" stroke-linecap="round"/>
<path d="M27.5 16L19 16" stroke="black" stroke-linecap="round"/>
<path d="M13.5 16L5 16" stroke="black" stroke-linecap="round"/>
<path d="M16 19V27.5" stroke="black" stroke-linecap="round"/>
</svg>
