<svg width="32" height="32" viewBox="0 0 32 32" fill="none" xmlns="http://www.w3.org/2000/svg">
<path d="M16 0.5C24.5604 0.5 31.5 7.43959 31.5 16C31.5 24.5604 24.5604 31.5 16 31.5C7.43959 31.5 0.5 24.5604 0.5 16C0.5 7.43959 7.43959 0.5 16 0.5Z" stroke="#324F33"/>
<mask id="path-2-inside-1_1165_119" fill="white">
<path d="M25.9962 17.2216C25.9962 17.5969 25.8473 17.9347 25.5534 18.2349C25.2595 18.5352 24.9198 18.6853 24.5382 18.6853C23.9275 18.6853 23.4809 18.4038 23.1947 17.8409L21.8511 17.7846C21.5649 17.7846 21 17.9084 20.1641 18.1524C19.2672 18.3963 18.7519 18.5915 18.6183 18.7416C18.4084 18.9668 18.2366 19.4922 18.1031 20.3179C17.9885 20.9934 17.9313 21.4888 17.9313 21.8078C17.9313 22.3145 18.0115 22.6861 18.1756 22.9187C18.3397 23.1514 18.6718 23.3503 19.1756 23.508C19.6794 23.6656 19.9924 23.7557 20.1069 23.7744C20.1832 23.7744 20.3053 23.7669 20.4809 23.7482H20.8244C21.0725 23.7482 21.3282 23.7857 21.5954 23.8608C21.9771 23.9734 22.1412 24.1235 22.084 24.3111C21.8168 24.2736 21.3511 24.3299 20.6832 24.48L21.4847 24.8741C21.4847 25.0993 21.1603 25.2119 20.5114 25.2119C20.3397 25.2119 20.1069 25.1743 19.8092 25.0993C19.5153 25.0242 19.3168 24.9867 19.2214 24.9867H18.8511C18.8321 25.1743 18.7748 25.4558 18.6794 25.8311C18.355 25.8123 17.9733 25.6247 17.5344 25.2682C17.0954 24.9116 16.8206 24.7352 16.7061 24.7352C16.5916 24.7352 16.4275 24.9154 16.2214 25.2682C16.0114 25.6247 15.9084 25.8686 15.9084 26C15.6603 25.8686 15.4504 25.6247 15.2786 25.2682C15.2023 25.0242 15.1183 24.7803 15.0229 24.5363C14.8321 24.5551 14.4809 24.9491 13.9656 25.7185H13.8206C13.7824 25.6622 13.6374 25.2682 13.3931 24.5363C12.8015 24.3487 12.2481 24.2548 11.7328 24.2548C11.4847 24.2548 11.1031 24.3111 10.5878 24.4237L9.78626 24.3674C9.90076 24.2548 10.2328 24.0409 10.7863 23.7219C11.4351 23.3466 11.9313 23.1589 12.2748 23.1589C12.3321 23.1589 12.4084 23.1702 12.5038 23.189C12.5992 23.2077 12.6756 23.219 12.7328 23.219C12.8664 23.219 13.0802 23.1477 13.3779 23.0088C13.6718 22.87 13.8435 22.7424 13.8931 22.6298C13.9427 22.5172 13.9656 22.2244 13.9656 21.7591C13.9656 20.6894 13.6794 19.8938 13.1069 19.3684C12.6107 18.8992 11.7901 18.5615 10.645 18.355C10.3397 19.4247 9.48092 19.9576 8.07252 19.9576C7.6145 19.9576 7.15649 19.6874 6.69847 19.1432C6.22901 18.5877 6 18.0923 6 17.642C6 16.9476 6.29389 16.3772 6.8855 15.9268C6.4084 15.4389 6.17176 14.9435 6.17176 14.4369C6.17176 13.9677 6.32061 13.5549 6.6145 13.1983C6.9084 12.8418 7.29771 12.6354 7.77481 12.5791C7.73664 11.9786 7.93511 11.5658 8.37405 11.3406C8.16412 11.1342 8.06107 10.7701 8.06107 10.2447C8.06107 9.62545 8.27099 9.11128 8.69084 8.69844C9.11069 8.28561 9.63359 8.07919 10.2634 8.07919C10.9504 8.07919 11.5115 8.31563 11.9504 8.78476C12.5038 6.927 13.6947 6 15.5267 6C16.4809 6 17.3206 6.3753 18.0458 7.12591C18.313 7.40739 18.4466 7.55752 18.4466 7.57628C18.2176 7.57628 18.3321 7.535 18.7901 7.44868C19.2481 7.36611 19.5802 7.32107 19.7901 7.32107C20.5344 7.32107 21.1908 7.59129 21.7634 8.13549C22.2595 8.62338 22.6031 9.24263 22.7939 9.99324C22.9275 10.012 23.1374 10.0683 23.4237 10.1621C23.8435 10.3685 24.0534 10.7251 24.0534 11.2318C24.0534 11.3256 23.9771 11.5057 23.8244 11.7647C25.0458 12.4402 25.6565 13.3785 25.6565 14.5795C25.6565 14.9172 25.5229 15.3864 25.2557 15.9869C25.7519 16.2683 26 16.6812 26 17.2254L25.9962 17.2216ZM14.2137 18.4639V18.0998C14.2137 17.6682 14 17.2742 13.5687 16.9176C13.1412 16.5611 12.7061 16.3847 12.2672 16.3847C11.7328 16.3847 11.2366 16.5048 10.7786 16.7487C11.7901 16.6924 12.9351 17.2667 14.2099 18.4639H14.2137ZM13.6947 14.9773C13.4084 14.6583 13.1603 14.3318 12.9504 13.994C12.1489 14.2004 11.7481 14.4331 11.7481 14.6958C11.9771 14.6771 12.3092 14.7183 12.7481 14.8234C13.187 14.9285 13.5 14.9773 13.6947 14.9773ZM15.4389 14.1066V12.8681C14.9809 12.793 14.7023 12.7555 14.6107 12.7555V13.1758L15.4389 14.1028V14.1066ZM19.1565 13.3147C18.9275 13.2209 18.5 13.0332 17.8702 12.7517V15.1725C18.7672 14.6658 19.1947 14.0465 19.1565 13.3147ZM20.729 16.6361L20.0992 15.878C19.7176 16.1407 19.3321 16.4072 18.9389 16.6812C18.5458 16.9514 18.2099 17.2591 17.9237 17.5969C18.7824 17.1466 19.7176 16.8275 20.7252 16.6399"/>
</mask>
<path d="M25.9962 17.2216C25.9962 17.5969 25.8473 17.9347 25.5534 18.2349C25.2595 18.5352 24.9198 18.6853 24.5382 18.6853C23.9275 18.6853 23.4809 18.4038 23.1947 17.8409L21.8511 17.7846C21.5649 17.7846 21 17.9084 20.1641 18.1524C19.2672 18.3963 18.7519 18.5915 18.6183 18.7416C18.4084 18.9668 18.2366 19.4922 18.1031 20.3179C17.9885 20.9934 17.9313 21.4888 17.9313 21.8078C17.9313 22.3145 18.0115 22.6861 18.1756 22.9187C18.3397 23.1514 18.6718 23.3503 19.1756 23.508C19.6794 23.6656 19.9924 23.7557 20.1069 23.7744C20.1832 23.7744 20.3053 23.7669 20.4809 23.7482H20.8244C21.0725 23.7482 21.3282 23.7857 21.5954 23.8608C21.9771 23.9734 22.1412 24.1235 22.084 24.3111C21.8168 24.2736 21.3511 24.3299 20.6832 24.48L21.4847 24.8741C21.4847 25.0993 21.1603 25.2119 20.5114 25.2119C20.3397 25.2119 20.1069 25.1743 19.8092 25.0993C19.5153 25.0242 19.3168 24.9867 19.2214 24.9867H18.8511C18.8321 25.1743 18.7748 25.4558 18.6794 25.8311C18.355 25.8123 17.9733 25.6247 17.5344 25.2682C17.0954 24.9116 16.8206 24.7352 16.7061 24.7352C16.5916 24.7352 16.4275 24.9154 16.2214 25.2682C16.0114 25.6247 15.9084 25.8686 15.9084 26C15.6603 25.8686 15.4504 25.6247 15.2786 25.2682C15.2023 25.0242 15.1183 24.7803 15.0229 24.5363C14.8321 24.5551 14.4809 24.9491 13.9656 25.7185H13.8206C13.7824 25.6622 13.6374 25.2682 13.3931 24.5363C12.8015 24.3487 12.2481 24.2548 11.7328 24.2548C11.4847 24.2548 11.1031 24.3111 10.5878 24.4237L9.78626 24.3674C9.90076 24.2548 10.2328 24.0409 10.7863 23.7219C11.4351 23.3466 11.9313 23.1589 12.2748 23.1589C12.3321 23.1589 12.4084 23.1702 12.5038 23.189C12.5992 23.2077 12.6756 23.219 12.7328 23.219C12.8664 23.219 13.0802 23.1477 13.3779 23.0088C13.6718 22.87 13.8435 22.7424 13.8931 22.6298C13.9427 22.5172 13.9656 22.2244 13.9656 21.7591C13.9656 20.6894 13.6794 19.8938 13.1069 19.3684C12.6107 18.8992 11.7901 18.5615 10.645 18.355C10.3397 19.4247 9.48092 19.9576 8.07252 19.9576C7.6145 19.9576 7.15649 19.6874 6.69847 19.1432C6.22901 18.5877 6 18.0923 6 17.642C6 16.9476 6.29389 16.3772 6.8855 15.9268C6.4084 15.4389 6.17176 14.9435 6.17176 14.4369C6.17176 13.9677 6.32061 13.5549 6.6145 13.1983C6.9084 12.8418 7.29771 12.6354 7.77481 12.5791C7.73664 11.9786 7.93511 11.5658 8.37405 11.3406C8.16412 11.1342 8.06107 10.7701 8.06107 10.2447C8.06107 9.62545 8.27099 9.11128 8.69084 8.69844C9.11069 8.28561 9.63359 8.07919 10.2634 8.07919C10.9504 8.07919 11.5115 8.31563 11.9504 8.78476C12.5038 6.927 13.6947 6 15.5267 6C16.4809 6 17.3206 6.3753 18.0458 7.12591C18.313 7.40739 18.4466 7.55752 18.4466 7.57628C18.2176 7.57628 18.3321 7.535 18.7901 7.44868C19.2481 7.36611 19.5802 7.32107 19.7901 7.32107C20.5344 7.32107 21.1908 7.59129 21.7634 8.13549C22.2595 8.62338 22.6031 9.24263 22.7939 9.99324C22.9275 10.012 23.1374 10.0683 23.4237 10.1621C23.8435 10.3685 24.0534 10.7251 24.0534 11.2318C24.0534 11.3256 23.9771 11.5057 23.8244 11.7647C25.0458 12.4402 25.6565 13.3785 25.6565 14.5795C25.6565 14.9172 25.5229 15.3864 25.2557 15.9869C25.7519 16.2683 26 16.6812 26 17.2254L25.9962 17.2216ZM14.2137 18.4639V18.0998C14.2137 17.6682 14 17.2742 13.5687 16.9176C13.1412 16.5611 12.7061 16.3847 12.2672 16.3847C11.7328 16.3847 11.2366 16.5048 10.7786 16.7487C11.7901 16.6924 12.9351 17.2667 14.2099 18.4639H14.2137ZM13.6947 14.9773C13.4084 14.6583 13.1603 14.3318 12.9504 13.994C12.1489 14.2004 11.7481 14.4331 11.7481 14.6958C11.9771 14.6771 12.3092 14.7183 12.7481 14.8234C13.187 14.9285 13.5 14.9773 13.6947 14.9773ZM15.4389 14.1066V12.8681C14.9809 12.793 14.7023 12.7555 14.6107 12.7555V13.1758L15.4389 14.1028V14.1066ZM19.1565 13.3147C18.9275 13.2209 18.5 13.0332 17.8702 12.7517V15.1725C18.7672 14.6658 19.1947 14.0465 19.1565 13.3147ZM20.729 16.6361L20.0992 15.878C19.7176 16.1407 19.3321 16.4072 18.9389 16.6812C18.5458 16.9514 18.2099 17.2591 17.9237 17.5969C18.7824 17.1466 19.7176 16.8275 20.7252 16.6399" fill="#324F33"/>
<path d="M25.9962 17.2216L26.6972 16.5085L24.9962 14.8364V17.2216H25.9962ZM23.1947 17.8409L24.086 17.3876L23.8209 16.8662L23.2365 16.8417L23.1947 17.8409ZM21.8511 17.7846L21.893 16.7855L21.8721 16.7846H21.8511V17.7846ZM20.1641 18.1524L20.4266 19.1173L20.4354 19.1149L20.4443 19.1123L20.1641 18.1524ZM18.6183 18.7416L19.3498 19.4235L19.3577 19.415L19.3654 19.4064L18.6183 18.7416ZM18.1031 20.3179L19.089 20.485L19.0902 20.4776L18.1031 20.3179ZM20.1069 23.7744L19.9451 24.7613L20.0255 24.7744H20.1069V23.7744ZM20.4809 23.7482V22.7482H20.4276L20.3746 22.7538L20.4809 23.7482ZM21.5954 23.8608L21.8784 22.9015L21.8659 22.898L21.5954 23.8608ZM22.084 24.3111L21.9449 25.3014L22.7911 25.4203L23.0404 24.6029L22.084 24.3111ZM20.6832 24.48L20.4639 23.5044L17.6971 24.1262L20.242 25.3774L20.6832 24.48ZM21.4847 24.8741H22.4847V24.2514L21.9259 23.9767L21.4847 24.8741ZM19.8092 25.0993L19.5617 26.0682L19.5647 26.0689L19.8092 25.0993ZM18.8511 24.9867V23.9867H17.9477L17.8563 24.8855L18.8511 24.9867ZM18.6794 25.8311L18.6216 26.8294L19.4453 26.8771L19.6486 26.0775L18.6794 25.8311ZM16.2214 25.2682L17.0831 25.7755L17.0848 25.7726L16.2214 25.2682ZM15.9084 26L15.4405 26.8838L16.9084 27.661V26H15.9084ZM15.2786 25.2682L14.3243 25.5668L14.346 25.6364L14.3777 25.7022L15.2786 25.2682ZM15.0229 24.5363L15.9542 24.172L15.6784 23.467L14.925 23.5411L15.0229 24.5363ZM13.9656 25.7185V26.7185H14.4995L14.7965 26.275L13.9656 25.7185ZM13.8206 25.7185L12.9929 26.2797L13.2904 26.7185H13.8206V25.7185ZM13.3931 24.5363L14.3417 24.2197L14.1806 23.737L13.6955 23.5831L13.3931 24.5363ZM10.5878 24.4237L10.5177 25.4213L10.661 25.4313L10.8013 25.4007L10.5878 24.4237ZM9.78626 24.3674L9.08513 23.6544L7.50355 25.2096L9.7162 25.365L9.78626 24.3674ZM10.7863 23.7219L11.2857 24.5883L11.2869 24.5875L10.7863 23.7219ZM13.3779 23.0088L13.8006 23.9151L13.8051 23.913L13.3779 23.0088ZM13.1069 19.3684L12.4198 20.095L12.4252 20.1001L12.4307 20.1051L13.1069 19.3684ZM10.645 18.355L10.8224 17.3709L9.93186 17.2104L9.68345 18.0805L10.645 18.355ZM6.69847 19.1432L7.46356 18.4993L7.46222 18.4977L6.69847 19.1432ZM6.8855 15.9268L7.49122 16.7225L8.3918 16.0369L7.60047 15.2277L6.8855 15.9268ZM7.77481 12.5791L7.89199 13.5722L8.83289 13.4612L8.77279 12.5157L7.77481 12.5791ZM8.37405 11.3406L8.83051 12.2303L10.0624 11.5983L9.07517 10.6276L8.37405 11.3406ZM11.9504 8.78476L11.2202 9.46798L12.4111 10.7408L12.9088 9.07027L11.9504 8.78476ZM18.0458 7.12591L18.7711 6.43745L18.765 6.43109L18.0458 7.12591ZM18.4466 7.57628V8.57628H19.4466V7.57628H18.4466ZM18.7901 7.44868L18.6127 6.46451L18.6049 6.46598L18.7901 7.44868ZM21.7634 8.13549L22.4645 7.42245L22.4584 7.41651L22.4523 7.41067L21.7634 8.13549ZM22.7939 9.99324L21.8247 10.2397L21.9901 10.8902L22.6548 10.9835L22.7939 9.99324ZM23.4237 10.1621L23.8649 9.26473L23.8019 9.23375L23.7351 9.21187L23.4237 10.1621ZM23.8244 11.7647L22.963 11.2568L22.441 12.1423L23.3404 12.6398L23.8244 11.7647ZM25.2557 15.9869L24.3421 15.5804L23.9733 16.4091L24.7623 16.8567L25.2557 15.9869ZM26 17.2254L25.299 17.9385L27 19.6106V17.2254H26ZM14.2137 18.4639V19.4639H15.2137V18.4639H14.2137ZM13.5687 16.9176L12.9282 17.6856L12.9316 17.6884L13.5687 16.9176ZM10.7786 16.7487L10.3085 15.8661L10.8342 17.7472L10.7786 16.7487ZM14.2099 18.4639L13.5253 19.1928L13.814 19.4639H14.2099V18.4639ZM13.6947 14.9773V15.9773H15.9356L14.4389 14.3094L13.6947 14.9773ZM12.9504 13.994L13.7997 13.4661L13.4121 12.8425L12.701 13.0256L12.9504 13.994ZM11.7481 14.6958H10.7481V15.7811L11.8298 15.6925L11.7481 14.6958ZM15.4389 12.8681H16.4389V12.0186L15.6007 11.8812L15.4389 12.8681ZM14.6107 12.7555V11.7555H13.6107V12.7555H14.6107ZM14.6107 13.1758H13.6107V13.5575L13.865 13.8421L14.6107 13.1758ZM15.4389 14.1028H16.4389V13.7212L16.1846 13.4366L15.4389 14.1028ZM19.1565 13.3147L20.1551 13.2626L20.1221 12.6296L19.5356 12.3893L19.1565 13.3147ZM17.8702 12.7517L18.2783 11.8388L16.8702 11.2094V12.7517H17.8702ZM17.8702 15.1725H16.8702V16.8858L18.3621 16.0431L17.8702 15.1725ZM20.0992 15.878L20.8685 15.239L20.2847 14.5364L19.5323 15.0543L20.0992 15.878ZM18.9389 16.6812L19.5054 17.5053L19.5107 17.5016L18.9389 16.6812ZM17.9237 17.5969L17.1608 16.9504L18.3881 18.4825L17.9237 17.5969ZM25.9962 17.2216H24.9962C24.9962 17.3 24.9761 17.3952 24.8388 17.5354L25.5534 18.2349L26.2681 18.9345C26.7185 18.4742 26.9962 17.8938 26.9962 17.2216H25.9962ZM25.5534 18.2349L24.8388 17.5354C24.7132 17.6637 24.6239 17.6853 24.5382 17.6853V18.6853V19.6853C25.2158 19.6853 25.8058 19.4067 26.2681 18.9345L25.5534 18.2349ZM24.5382 18.6853V17.6853C24.3916 17.6853 24.3181 17.6535 24.2772 17.6277C24.2341 17.6007 24.1635 17.5399 24.086 17.3876L23.1947 17.8409L22.3033 18.2941C22.5121 18.7048 22.8078 19.0663 23.2123 19.3207C23.6189 19.5764 24.0741 19.6853 24.5382 19.6853V18.6853ZM23.1947 17.8409L23.2365 16.8417L21.893 16.7855L21.8511 17.7846L21.8093 18.7837L23.1528 18.84L23.1947 17.8409ZM21.8511 17.7846V16.7846C21.3969 16.7846 20.6925 16.9564 19.884 17.1924L20.1641 18.1524L20.4443 19.1123C20.8503 18.9938 21.1764 18.9087 21.427 18.854C21.552 18.8267 21.6514 18.8085 21.7279 18.7974C21.7658 18.7919 21.7953 18.7885 21.8173 18.7866C21.8281 18.7857 21.8364 18.7852 21.8423 18.7849C21.8452 18.7847 21.8474 18.7847 21.849 18.7846C21.8505 18.7846 21.8512 18.7846 21.8511 18.7846V17.7846ZM20.1641 18.1524L19.9017 17.1874C19.4403 17.3129 19.0514 17.4326 18.7493 17.5476C18.5987 17.6049 18.4515 17.6678 18.3198 17.738C18.2063 17.7985 18.0237 17.9056 17.8713 18.0768L18.6183 18.7416L19.3654 19.4064C19.2798 19.5026 19.2116 19.529 19.2603 19.503C19.2909 19.4868 19.3536 19.4575 19.4606 19.4168C19.6738 19.3357 19.9909 19.2358 20.4266 19.1173L20.1641 18.1524ZM18.6183 18.7416L17.8869 18.0597C17.6327 18.3323 17.4822 18.6859 17.3816 18.9939C17.2736 19.324 17.1872 19.7173 17.1159 20.1582L18.1031 20.3179L19.0902 20.4776C19.1525 20.0928 19.2187 19.8105 19.2826 19.6153C19.3536 19.3978 19.394 19.376 19.3498 19.4235L18.6183 18.7416ZM18.1031 20.3179L17.1171 20.1508C17.0014 20.8333 16.9313 21.3991 16.9313 21.8078H17.9313H18.9313C18.9313 21.5786 18.9757 21.1536 19.089 20.485L18.1031 20.3179ZM17.9313 21.8078H16.9313C16.9313 22.3743 17.0122 23.0043 17.3584 23.4951L18.1756 22.9187L18.9928 22.3424C19.0092 22.3657 18.9901 22.3497 18.9688 22.2523C18.9479 22.1567 18.9313 22.0125 18.9313 21.8078H17.9313ZM18.1756 22.9187L17.3584 23.4951C17.7157 24.0017 18.3098 24.2849 18.877 24.4624L19.1756 23.508L19.4742 22.5536C19.2729 22.4906 19.1396 22.4295 19.0574 22.3809C18.9734 22.3312 18.9708 22.3112 18.9928 22.3424L18.1756 22.9187ZM19.1756 23.508L18.877 24.4624C19.3473 24.6095 19.7433 24.7282 19.9451 24.7613L20.1069 23.7744L20.2686 22.7876C20.2778 22.7891 20.2255 22.7786 20.0627 22.732C19.9183 22.6906 19.7228 22.6314 19.4742 22.5536L19.1756 23.508ZM20.1069 23.7744V24.7744C20.2357 24.7744 20.3986 24.7627 20.5872 24.7425L20.4809 23.7482L20.3746 22.7538C20.2121 22.7712 20.1308 22.7744 20.1069 22.7744V23.7744ZM20.4809 23.7482V24.7482H20.8244V23.7482V22.7482H20.4809V23.7482ZM20.8244 23.7482V24.7482C20.9703 24.7482 21.1348 24.7701 21.3249 24.8235L21.5954 23.8608L21.8659 22.898C21.5217 22.8013 21.1747 22.7482 20.8244 22.7482V23.7482ZM21.5954 23.8608L21.3125 24.8199C21.3713 24.8372 21.3998 24.8498 21.4068 24.8531C21.4164 24.8578 21.38 24.8422 21.3272 24.7937C21.2716 24.7425 21.1827 24.6399 21.1317 24.4779C21.0779 24.3073 21.0894 24.1443 21.1275 24.0193L22.084 24.3111L23.0404 24.6029C23.1072 24.3842 23.1196 24.132 23.0393 23.877C22.9616 23.6305 22.8186 23.4481 22.6814 23.3219C22.4299 23.0906 22.1164 22.9718 21.8784 22.9016L21.5954 23.8608ZM22.084 24.3111L22.2231 23.3209C21.7533 23.2549 21.1219 23.3565 20.4639 23.5044L20.6832 24.48L20.9025 25.4557C21.2171 25.385 21.4652 25.3407 21.6537 25.318C21.7473 25.3067 21.819 25.3016 21.8719 25.3002C21.9266 25.2988 21.948 25.3019 21.9449 25.3014L22.084 24.3111ZM20.6832 24.48L20.242 25.3774L21.0435 25.7715L21.4847 24.8741L21.9259 23.9767L21.1244 23.5826L20.6832 24.48ZM21.4847 24.8741H20.4847C20.4847 24.7792 20.5024 24.6755 20.5448 24.5726C20.5869 24.4704 20.6448 24.3894 20.7027 24.3291C20.8106 24.2168 20.9098 24.184 20.9135 24.1827C20.9238 24.1791 20.8995 24.1885 20.8223 24.1974C20.7488 24.2059 20.6468 24.2119 20.5114 24.2119V25.2119V26.2119C20.8666 26.2119 21.2456 26.1845 21.5693 26.0721C21.8842 25.9628 22.4847 25.6273 22.4847 24.8741H21.4847ZM20.5114 25.2119V24.2119C20.4632 24.2119 20.3246 24.1979 20.0536 24.1296L19.8092 25.0993L19.5647 26.0689C19.8892 26.1507 20.2162 26.2119 20.5114 26.2119V25.2119ZM19.8092 25.0993L20.0566 24.1304C19.7856 24.0612 19.4641 23.9867 19.2214 23.9867V24.9867V25.9867C19.1865 25.9867 19.1706 25.9838 19.1851 25.9856C19.1959 25.987 19.2179 25.9903 19.2533 25.9971C19.3245 26.0107 19.4263 26.0336 19.5617 26.0682L19.8092 25.0993ZM19.2214 24.9867V23.9867H18.8511V24.9867V25.9867H19.2214V24.9867ZM18.8511 24.9867L17.8563 24.8855C17.845 24.9961 17.8034 25.2184 17.7102 25.5847L18.6794 25.8311L19.6486 26.0775C19.7463 25.6932 19.8191 25.3526 19.846 25.0879L18.8511 24.9867ZM18.6794 25.8311L18.7371 24.8328C18.7425 24.8331 18.6973 24.8311 18.591 24.7789C18.4855 24.727 18.3438 24.6373 18.1648 24.492L17.5344 25.2682L16.9039 26.0443C17.3985 26.4461 17.9826 26.7925 18.6216 26.8294L18.6794 25.8311ZM17.5344 25.2682L18.1648 24.492C17.9339 24.3044 17.7226 24.1447 17.5394 24.0269C17.4486 23.9685 17.3448 23.9074 17.2353 23.8577C17.1499 23.819 16.9527 23.7352 16.7061 23.7352V24.7352V25.7352C16.5986 25.7352 16.5191 25.7156 16.482 25.7051C16.4414 25.6935 16.4158 25.6821 16.4089 25.679C16.3968 25.6735 16.4107 25.6788 16.4577 25.7091C16.5503 25.7686 16.6959 25.8754 16.9039 26.0443L17.5344 25.2682ZM16.7061 24.7352V23.7352C16.4171 23.7352 16.1964 23.8463 16.0688 23.9287C15.9364 24.0141 15.8332 24.1143 15.7585 24.1964C15.6093 24.3604 15.4759 24.5618 15.3579 24.7637L16.2214 25.2682L17.0848 25.7726C17.173 25.6217 17.2247 25.5567 17.2377 25.5424C17.2441 25.5354 17.2163 25.5684 17.1533 25.6091C17.0951 25.6467 16.9379 25.7352 16.7061 25.7352V24.7352ZM16.2214 25.2682L15.3596 24.7608C15.243 24.959 15.1415 25.1499 15.0663 25.3263C15.0035 25.4736 14.9084 25.7228 14.9084 26H15.9084H16.9084C16.9084 26.0886 16.8926 26.1434 16.8918 26.1463C16.8895 26.1544 16.8919 26.1439 16.906 26.1107C16.9348 26.0432 16.9899 25.9339 17.0831 25.7755L16.2214 25.2682ZM15.9084 26L16.3763 25.1162C16.3762 25.1162 16.3719 25.1139 16.3633 25.1069C16.3546 25.0997 16.3408 25.0871 16.3229 25.0663C16.2862 25.0236 16.2358 24.951 16.1795 24.8342L15.2786 25.2682L14.3777 25.7022C14.6052 26.1745 14.9404 26.619 15.4405 26.8838L15.9084 26ZM15.2786 25.2682L16.233 24.9695C16.151 24.7075 16.0595 24.4412 15.9542 24.172L15.0229 24.5363L14.0916 24.9006C14.1772 25.1193 14.2536 25.3409 14.3243 25.5668L15.2786 25.2682ZM15.0229 24.5363L14.925 23.5411C14.5989 23.5732 14.3598 23.7369 14.244 23.825C14.1058 23.9302 13.9802 24.0566 13.8702 24.1797C13.6485 24.4279 13.4019 24.7632 13.1348 25.1621L13.9656 25.7185L14.7965 26.275C15.0447 25.9044 15.2313 25.6581 15.3616 25.5122C15.4277 25.4382 15.4579 25.4145 15.4553 25.4165C15.4527 25.4184 15.4277 25.4375 15.382 25.4598C15.3382 25.4812 15.2478 25.519 15.1208 25.5315L15.0229 24.5363ZM13.9656 25.7185V24.7185H13.8206V25.7185V26.7185H13.9656V25.7185ZM13.8206 25.7185L14.6483 25.1574C14.6763 25.1986 14.6935 25.2313 14.6984 25.2408C14.7053 25.2539 14.7092 25.2624 14.7097 25.2635C14.7107 25.2655 14.7074 25.2584 14.699 25.2378C14.6827 25.1976 14.658 25.1329 14.6241 25.0394C14.5568 24.854 14.4625 24.5818 14.3417 24.2197L13.3931 24.5363L12.4446 24.8529C12.568 25.2227 12.6684 25.5134 12.7442 25.7221C12.7818 25.8257 12.8158 25.9158 12.8451 25.9881C12.8565 26.0163 12.9118 26.1601 12.9929 26.2797L13.8206 25.7185ZM13.3931 24.5363L13.6955 23.5831C13.0254 23.3706 12.3692 23.2548 11.7328 23.2548V24.2548V25.2548C12.127 25.2548 12.5776 25.3267 13.0908 25.4895L13.3931 24.5363ZM11.7328 24.2548V23.2548C11.3702 23.2548 10.8996 23.332 10.3743 23.4468L10.5878 24.4237L10.8013 25.4007C11.3065 25.2903 11.5992 25.2548 11.7328 25.2548V24.2548ZM10.5878 24.4237L10.6578 23.4262L9.85632 23.3699L9.78626 24.3674L9.7162 25.365L10.5177 25.4213L10.5878 24.4237ZM9.78626 24.3674L10.4874 25.0805C10.4654 25.1021 10.4629 25.1006 10.5034 25.0711C10.5384 25.0455 10.5906 25.0096 10.6638 24.9624C10.8104 24.8678 11.0156 24.7439 11.2857 24.5883L10.7863 23.7219L10.2869 22.8555C10.0035 23.0189 9.76599 23.1615 9.57951 23.2818C9.41516 23.3878 9.22362 23.5182 9.08513 23.6544L9.78626 24.3674ZM10.7863 23.7219L11.2869 24.5875C11.5819 24.4169 11.8175 24.3036 11.9988 24.235C12.0884 24.2011 12.157 24.1812 12.2066 24.1701C12.2571 24.1588 12.278 24.1589 12.2748 24.1589V23.1589V22.1589C11.6439 22.1589 10.9461 22.4742 10.2856 22.8563L10.7863 23.7219ZM12.2748 23.1589V24.1589C12.257 24.1589 12.2452 24.1581 12.2408 24.1577C12.2363 24.1574 12.236 24.1572 12.241 24.1579C12.2459 24.1586 12.2541 24.1598 12.2662 24.1619C12.2783 24.164 12.293 24.1667 12.3109 24.1702L12.5038 23.189L12.6968 22.2078C12.5962 22.188 12.4372 22.1589 12.2748 22.1589V23.1589ZM12.5038 23.189L12.3109 24.1702C12.4114 24.19 12.5704 24.219 12.7328 24.219V23.219V22.219C12.7506 22.219 12.7625 22.2198 12.7668 22.2202C12.7714 22.2206 12.7717 22.2207 12.7666 22.22C12.7617 22.2194 12.7535 22.2181 12.7414 22.2161C12.7293 22.214 12.7146 22.2113 12.6968 22.2078L12.5038 23.189ZM12.7328 23.219V24.219C12.9552 24.219 13.1592 24.1641 13.3053 24.1162C13.4644 24.0641 13.6318 23.9938 13.8006 23.9151L13.3779 23.0088L12.9551 22.1026C12.8262 22.1627 12.7378 22.1975 12.6823 22.2157C12.6555 22.2245 12.6452 22.2265 12.6485 22.2258C12.6501 22.2255 12.681 22.219 12.7328 22.219V23.219ZM13.3779 23.0088L13.8051 23.913C13.9847 23.8281 14.1638 23.7299 14.3206 23.6143C14.4584 23.5126 14.6791 23.326 14.8082 23.033L13.8931 22.6298L12.978 22.2265C13.0219 22.127 13.0738 22.0651 13.0983 22.0385C13.1242 22.0105 13.1399 22 13.1336 22.0046C13.1284 22.0084 13.1117 22.0201 13.0794 22.0385C13.0475 22.0567 13.0052 22.0789 12.9507 22.1047L13.3779 23.0088ZM13.8931 22.6298L14.8082 23.033C14.9081 22.8064 14.9329 22.5512 14.9446 22.4084C14.9598 22.2241 14.9656 22.004 14.9656 21.7591H13.9656H12.9656C12.9656 21.9795 12.9601 22.1384 12.9513 22.245C12.947 22.2982 12.9428 22.3256 12.9413 22.334C12.938 22.3521 12.9443 22.3031 12.978 22.2265L13.8931 22.6298ZM13.9656 21.7591H14.9656C14.9656 20.5179 14.6302 19.4091 13.783 18.6316L13.1069 19.3684L12.4307 20.1051C12.7286 20.3785 12.9656 20.861 12.9656 21.7591H13.9656ZM13.1069 19.3684L13.7939 18.6417C13.0885 17.9748 12.0392 17.5902 10.8224 17.3709L10.645 18.355L10.4676 19.3392C11.541 19.5327 12.1329 19.8237 12.4198 20.095L13.1069 19.3684ZM10.645 18.355L9.68345 18.0805C9.5916 18.4023 9.44073 18.586 9.24404 18.7084C9.02469 18.8449 8.66083 18.9576 8.07252 18.9576V19.9576V20.9576C8.89261 20.9576 9.66233 20.8038 10.3008 20.4064C10.9619 19.995 11.3931 19.3774 11.6066 18.6295L10.645 18.355ZM8.07252 19.9576V18.9576C8.0394 18.9576 7.83507 18.9407 7.46356 18.4993L6.69847 19.1432L5.93339 19.7871C6.4779 20.4341 7.18961 20.9576 8.07252 20.9576V19.9576ZM6.69847 19.1432L7.46222 18.4977C7.05956 18.0213 7 17.7505 7 17.642H6H5C5 18.4341 5.39845 19.1542 5.93473 19.7887L6.69847 19.1432ZM6 17.642H7C7 17.2837 7.12843 16.9987 7.49122 16.7225L6.8855 15.9268L6.27978 15.1311C5.45936 15.7557 5 16.6115 5 17.642H6ZM6.8855 15.9268L7.60047 15.2277C7.24202 14.8611 7.17176 14.603 7.17176 14.4369H6.17176H5.17176C5.17176 15.2841 5.57477 16.0167 6.17052 16.626L6.8855 15.9268ZM6.17176 14.4369H7.17176C7.17176 14.1989 7.24049 14.0111 7.38614 13.8344L6.6145 13.1983L5.84286 12.5623C5.40073 13.0987 5.17176 13.7366 5.17176 14.4369H6.17176ZM6.6145 13.1983L7.38614 13.8344C7.50715 13.6876 7.65665 13.6 7.89199 13.5722L7.77481 12.5791L7.65763 11.586C6.93877 11.6708 6.30964 11.996 5.84286 12.5623L6.6145 13.1983ZM7.77481 12.5791L8.77279 12.5157C8.76127 12.3344 8.79116 12.264 8.79596 12.2541C8.79734 12.2512 8.79796 12.2505 8.79759 12.251C8.7972 12.2515 8.79685 12.2519 8.79706 12.2517C8.7973 12.2514 8.79927 12.2495 8.80403 12.2461C8.80887 12.2426 8.8173 12.2371 8.83051 12.2303L8.37405 11.3406L7.91758 10.4508C7.51976 10.6549 7.19654 10.9671 6.99507 11.3841C6.80044 11.787 6.75018 12.2233 6.77682 12.6425L7.77481 12.5791ZM8.37405 11.3406L9.07517 10.6276C9.12454 10.6761 9.11865 10.7017 9.10055 10.6382C9.08173 10.5722 9.06107 10.4482 9.06107 10.2447H8.06107H7.06107C7.06107 10.8417 7.16659 11.5558 7.67292 12.0536L8.37405 11.3406ZM8.06107 10.2447H9.06107C9.06107 9.87906 9.17342 9.62638 9.39197 9.41148L8.69084 8.69844L7.98971 7.98541C7.36857 8.59618 7.06107 9.37183 7.06107 10.2447H8.06107ZM8.69084 8.69844L9.39197 9.41148C9.61151 9.1956 9.87666 9.07919 10.2634 9.07919V8.07919V7.07919C9.39051 7.07919 8.60986 7.37561 7.98971 7.98541L8.69084 8.69844ZM10.2634 8.07919V9.07919C10.6921 9.07919 10.9826 9.21403 11.2202 9.46798L11.9504 8.78476L12.6806 8.10155C12.0403 7.41723 11.2087 7.07919 10.2634 7.07919V8.07919ZM11.9504 8.78476L12.9088 9.07027C13.1429 8.28431 13.483 7.78873 13.8734 7.48476C14.2586 7.18481 14.7843 7 15.5267 7V6V5C14.4371 5 13.4513 5.27869 12.6447 5.90669C11.8433 6.53065 11.3113 7.42745 10.992 8.49926L11.9504 8.78476ZM15.5267 6V7C16.1828 7 16.7703 7.24492 17.3266 7.82074L18.0458 7.12591L18.765 6.43109C17.8709 5.50569 16.779 5 15.5267 5V6ZM18.0458 7.12591L17.3205 7.81435C17.4521 7.95304 17.5435 8.05161 17.5993 8.11439C17.6288 8.14753 17.6387 8.15978 17.6372 8.15795C17.6361 8.15653 17.6325 8.15195 17.6273 8.14486C17.6225 8.13842 17.6128 8.12499 17.6008 8.1064C17.591 8.09127 17.5668 8.05312 17.5416 7.99998C17.5287 7.97289 17.5089 7.92792 17.4909 7.86981C17.4816 7.8399 17.4711 7.80101 17.4627 7.75487C17.4544 7.70938 17.4466 7.64845 17.4466 7.57628H18.4466H19.4466C19.4466 7.33821 19.359 7.16477 19.3484 7.14247C19.3211 7.08492 19.2938 7.04135 19.2798 7.01977C19.2504 6.97423 19.2216 6.93713 19.2058 6.9172C19.171 6.87315 19.1307 6.82676 19.0934 6.78485C19.0157 6.6975 18.9066 6.58026 18.7711 6.43748L18.0458 7.12591ZM18.4466 7.57628V6.57628C18.4296 6.57628 18.4331 6.57579 18.4491 6.57696C18.4572 6.57755 18.4786 6.57925 18.508 6.58383C18.5296 6.5872 18.5973 6.59819 18.6818 6.62899C18.7055 6.63765 19.0216 6.73994 19.2099 7.08421C19.3292 7.30242 19.3632 7.55874 19.3027 7.80244C19.2495 8.01688 19.1391 8.15944 19.0738 8.23132C18.9523 8.365 18.8253 8.42882 18.801 8.44136C18.7558 8.4646 18.7203 8.47805 18.7067 8.4831C18.6678 8.49742 18.7163 8.48019 18.9753 8.43138L18.7901 7.44868L18.6049 6.46598C18.4058 6.50349 18.1681 6.55006 18.0147 6.6066C17.9867 6.61692 17.9396 6.63532 17.8855 6.66316C17.8522 6.68031 17.719 6.74839 17.5939 6.88602C17.5268 6.95986 17.4153 7.1043 17.3616 7.32054C17.3007 7.56605 17.3349 7.82408 17.4552 8.04393C17.6452 8.39147 17.9658 8.49671 17.9966 8.50797C18.1477 8.56304 18.2853 8.57033 18.3045 8.57172C18.3563 8.57548 18.4063 8.57628 18.4466 8.57628V7.57628ZM18.7901 7.44868L18.9675 8.43281C19.4309 8.34928 19.681 8.32107 19.7901 8.32107V7.32107V6.32107C19.4793 6.32107 19.0653 6.38294 18.6127 6.46454L18.7901 7.44868ZM19.7901 7.32107V8.32107C20.2621 8.32107 20.676 8.48158 21.0744 8.8603L21.7634 8.13549L22.4523 7.41067C21.7057 6.70101 20.8066 6.32107 19.7901 6.32107V7.32107ZM21.7634 8.13549L21.0622 8.84852C21.4138 9.19418 21.6737 9.64558 21.8247 10.2397L22.7939 9.99324L23.7631 9.74684C23.5324 8.83969 23.1053 8.05258 22.4645 7.42245L21.7634 8.13549ZM22.7939 9.99324L22.6548 10.9835C22.6935 10.989 22.8308 11.0202 23.1122 11.1124L23.4237 10.1621L23.7351 9.21187C23.444 9.11645 23.1614 9.03506 22.933 9.00297L22.7939 9.99324ZM23.4237 10.1621L22.9825 11.0595C23.0145 11.0753 23.0287 11.087 23.0327 11.0906C23.0361 11.0936 23.0353 11.0934 23.0343 11.0917C23.0304 11.0851 23.0534 11.1169 23.0534 11.2318H24.0534H25.0534C25.0534 10.8399 24.9715 10.4401 24.7577 10.077C24.5411 9.70908 24.2264 9.44247 23.8649 9.26473L23.4237 10.1621ZM24.0534 11.2318H23.0534C23.0534 11.1774 23.0588 11.1348 23.0633 11.1077C23.0679 11.0799 23.073 11.0598 23.0761 11.0489C23.0817 11.0288 23.0844 11.0253 23.0769 11.0427C23.0701 11.0585 23.058 11.0846 23.0384 11.1222C23.019 11.1593 22.9941 11.204 22.963 11.2568L23.8244 11.7647L24.6859 12.2725C24.7742 12.1227 24.8543 11.9726 24.9155 11.8299C24.9628 11.7194 25.0534 11.4932 25.0534 11.2318H24.0534ZM23.8244 11.7647L23.3404 12.6398C24.3055 13.1735 24.6565 13.8082 24.6565 14.5795H25.6565H26.6565C26.6565 12.9488 25.7861 11.7069 24.3084 10.8896L23.8244 11.7647ZM25.6565 14.5795H24.6565C24.6565 14.6993 24.5961 15.0095 24.3421 15.5804L25.2557 15.9869L26.1694 16.3934C26.4497 15.7633 26.6565 15.1352 26.6565 14.5795H25.6565ZM25.2557 15.9869L24.7623 16.8567C24.964 16.9711 25 17.0621 25 17.2254H26H27C27 16.3003 26.5398 15.5656 25.7491 15.1171L25.2557 15.9869ZM26 17.2254L26.701 16.5122L26.6972 16.5085L25.9962 17.2216L25.2952 17.9348L25.299 17.9385L26 17.2254ZM14.2137 18.4639H15.2137V18.0998H14.2137H13.2137V18.4639H14.2137ZM14.2137 18.0998H15.2137C15.2137 17.2888 14.796 16.6347 14.2058 16.1469L13.5687 16.9176L12.9316 17.6884C13.204 17.9136 13.2137 18.0477 13.2137 18.0998H14.2137ZM13.5687 16.9176L14.2092 16.1497C13.6481 15.6817 12.994 15.3847 12.2672 15.3847V16.3847V17.3847C12.4182 17.3847 12.6343 17.4404 12.9282 17.6856L13.5687 16.9176ZM12.2672 16.3847V15.3847C11.5764 15.3847 10.9178 15.5416 10.3085 15.8661L10.7786 16.7487L11.2487 17.6313C11.5555 17.468 11.8892 17.3847 12.2672 17.3847V16.3847ZM10.7786 16.7487L10.8342 17.7472C11.429 17.7141 12.3128 18.0541 13.5253 19.1928L14.2099 18.4639L14.8945 17.7349C13.5574 16.4792 12.1512 15.6708 10.7231 15.7503L10.7786 16.7487ZM14.2099 18.4639V19.4639H14.2137V18.4639V17.4639H14.2099V18.4639ZM13.6947 14.9773L14.4389 14.3094C14.1874 14.0292 13.9756 13.7491 13.7997 13.4661L12.9504 13.994L12.101 14.5218C12.345 14.9144 12.6294 15.2874 12.9504 15.6452L13.6947 14.9773ZM12.9504 13.994L12.701 13.0256C12.2697 13.1367 11.8643 13.2738 11.545 13.4599C11.2755 13.617 10.7481 13.9998 10.7481 14.6958H11.7481H12.7481C12.7481 14.9049 12.6629 15.0564 12.601 15.1329C12.5484 15.198 12.5133 15.2105 12.5523 15.1877C12.5862 15.1679 12.6536 15.1347 12.7678 15.093C12.8797 15.052 13.0224 15.0081 13.1998 14.9624L12.9504 13.994ZM11.7481 14.6958L11.8298 15.6925C11.8971 15.687 12.1042 15.6975 12.5153 15.7959L12.7481 14.8234L12.9809 13.8509C12.5141 13.7391 12.0571 13.6671 11.6664 13.6992L11.7481 14.6958ZM12.7481 14.8234L12.5153 15.7959C12.9658 15.9038 13.3752 15.9773 13.6947 15.9773V14.9773V13.9773C13.6716 13.9773 13.6027 13.9735 13.4718 13.9525C13.346 13.9322 13.1836 13.8994 12.9809 13.8509L12.7481 14.8234ZM15.4389 14.1066H16.4389V12.8681H15.4389H14.4389V14.1066H15.4389ZM15.4389 12.8681L15.6007 11.8812C15.3673 11.843 15.1731 11.8132 15.0218 11.7927C14.895 11.7755 14.7353 11.7555 14.6107 11.7555V12.7555V13.7555C14.5808 13.7555 14.5741 13.7534 14.6132 13.7574C14.6443 13.7606 14.6901 13.766 14.753 13.7746C14.8785 13.7916 15.0525 13.8181 15.2772 13.8549L15.4389 12.8681ZM14.6107 12.7555H13.6107V13.1758H14.6107H15.6107V12.7555H14.6107ZM14.6107 13.1758L13.865 13.8421L14.6932 14.7691L15.4389 14.1028L16.1846 13.4366L15.3564 12.5096L14.6107 13.1758ZM15.4389 14.1028H14.4389V14.1066H15.4389H16.4389V14.1028H15.4389ZM19.1565 13.3147L19.5356 12.3893C19.3238 12.3026 18.9111 12.1216 18.2783 11.8388L17.8702 12.7517L17.4622 13.6647C18.0889 13.9448 18.5311 14.1392 18.7774 14.24L19.1565 13.3147ZM17.8702 12.7517H16.8702V15.1725H17.8702H18.8702V12.7517H17.8702ZM17.8702 15.1725L18.3621 16.0431C19.4372 15.4358 20.2208 14.5209 20.1551 13.2626L19.1565 13.3147L18.1578 13.3668C18.1686 13.5722 18.0971 13.8958 17.3784 14.3018L17.8702 15.1725ZM20.729 16.6361L21.4982 15.9972L20.8685 15.239L20.0992 15.878L19.33 16.517L19.9598 17.2751L20.729 16.6361ZM20.0992 15.878L19.5323 15.0543C19.1495 15.3178 18.7623 15.5854 18.3672 15.8608L18.9389 16.6812L19.5107 17.5016C19.9018 17.229 20.2856 16.9637 20.6662 16.7018L20.0992 15.878ZM18.9389 16.6812L18.3725 15.8571C17.9053 16.1782 17.5036 16.5459 17.1608 16.9504L17.9237 17.5969L18.6865 18.2435C18.9163 17.9724 19.1863 17.7246 19.5054 17.5053L18.9389 16.6812ZM17.9237 17.5969L18.3881 18.4825C19.1532 18.0813 19.9927 17.7935 20.9083 17.623L20.7252 16.6399L20.5421 15.6568C19.4424 15.8616 18.4117 16.2118 17.4592 16.7113L17.9237 17.5969Z" fill="#324F33" mask="url(#path-2-inside-1_1165_119)"/>
</svg>
