<svg width="32" height="32" viewBox="0 0 32 32" fill="none" xmlns="http://www.w3.org/2000/svg">
<path d="M16 0.5C24.5604 0.5 31.5 7.43959 31.5 16C31.5 24.5604 24.5604 31.5 16 31.5C7.43959 31.5 0.5 24.5604 0.5 16C0.5 7.43959 7.43959 0.5 16 0.5Z" stroke="#C5432B"/>
<path d="M24.6771 19.9413C23.8057 22.0189 22.0707 23.0558 19.4798 23.0558C19.0052 23.0558 18.4878 23.114 17.9354 23.2344C17.1029 23.4131 16.6866 23.6616 16.6866 23.9761C16.6866 24.0732 16.7566 24.1897 16.8928 24.3179C17.0329 24.446 17.1496 24.5121 17.2507 24.5121C16.7566 24.5121 17.0912 24.5276 18.2622 24.5548C19.4331 24.5858 20.1645 24.5975 20.4601 24.5975C18.7368 25.6072 15.8541 26.0693 11.8122 25.9916C10.4856 25.9722 9.3458 25.3897 8.39659 24.2402C7.46294 23.1529 7 21.9374 7 20.5937C7 19.1724 7.4785 17.9608 8.44327 16.9589C9.40415 15.9609 10.5984 15.4599 12.0223 15.4599C12.3374 15.4599 12.7614 15.5298 13.2866 15.6657C13.8118 15.8055 14.1619 15.8715 14.3408 15.8715C15.0722 15.8715 15.9864 15.5686 17.0756 14.9667C18.1649 14.3648 18.6823 14.0619 18.6201 14.0619C18.4217 16.1395 17.7292 17.5336 16.5388 18.2443C15.6868 18.7375 15.2628 19.2229 15.2628 19.6967C15.2628 19.9918 15.4418 20.2326 15.7958 20.4073C16.072 20.5471 16.3793 20.617 16.7177 20.617C17.2313 20.617 17.737 20.3025 18.2349 19.6695C18.729 19.0365 18.9468 18.4618 18.8885 17.9491C18.8301 17.355 18.869 16.6443 19.0091 15.8133C19.048 15.5764 19.1919 15.2852 19.4409 14.9395C19.6899 14.5939 19.9116 14.3803 20.11 14.3027C20.11 14.4813 20.0478 14.7764 19.9155 15.192C19.7871 15.6075 19.721 15.9143 19.721 16.1123C19.721 16.5473 19.8377 16.8851 20.0789 17.122C20.4368 16.9822 20.7519 16.5395 21.0281 15.7861C21.2654 15.2114 21.4054 14.6599 21.4443 14.124C20.6118 14.0852 19.8144 13.7085 19.0519 12.9978C18.2894 12.2872 17.9081 11.5144 17.9081 10.6834C17.9081 10.5436 17.9276 10.4076 17.9665 10.2678C18.0832 10.4465 18.2622 10.7222 18.4995 11.0989C18.8379 11.5921 19.0947 11.8406 19.2736 11.8406C19.5109 11.8406 19.6315 11.5921 19.6315 11.0989C19.6315 10.4659 19.4642 9.89114 19.1258 9.37854C18.7484 8.76496 18.2622 8.45818 17.6708 8.45818C17.3946 8.45818 16.9784 8.60575 16.4221 8.90477C15.8658 9.1999 15.3601 9.35135 14.9049 9.35135C14.7649 9.35135 14.1502 9.17272 13.0609 8.81545C14.9827 8.50089 15.9436 8.21352 15.9436 7.95722C15.9436 7.2854 14.6248 6.83104 11.9911 6.59416C11.7344 6.57474 11.2598 6.53591 10.5634 6.47377C10.6412 6.37669 11.2053 6.26795 12.2557 6.14757C13.1465 6.05048 13.7729 6 14.1269 6C18.8418 6 21.8334 8.28343 23.1016 12.8542C23.3194 12.6755 23.4284 12.3726 23.4284 11.9532C23.4284 11.4134 23.2689 10.73 22.9538 9.90668C22.8332 9.58824 22.6464 9.1067 22.3897 8.46206C24.0119 10.528 24.8249 12.4852 24.8249 14.3337C24.8249 15.3085 24.5954 16.19 24.1403 16.9861C23.8446 17.522 23.2883 18.2093 22.4753 19.0443C21.6622 19.8792 21.1098 20.5238 20.8102 20.9821C21.8995 20.6869 22.6153 20.4578 22.9499 20.2986C23.7007 19.9646 24.3853 19.4598 25 18.7841C25 19.0404 24.8911 19.4287 24.6732 19.9413H24.6771ZM11.7227 8.28343C11.7227 8.6407 11.5243 8.86593 11.1275 8.9669L10.3534 9.08728C10.0772 9.22709 9.66868 9.77076 9.13573 10.7183C9.07737 10.4232 8.9879 10.0076 8.8673 9.47174C8.68835 9.49116 8.3927 9.65037 7.97644 9.94551C7.79749 10.0853 7.50962 10.2911 7.11282 10.5669C7.23341 9.85619 7.62632 9.13388 8.30322 8.39993C9.01513 7.5883 9.71148 7.18443 10.3845 7.18443C11.2753 7.18443 11.7227 7.54947 11.7227 8.28343V8.28343ZM16.8928 11.0134C16.8928 11.3513 16.71 11.6309 16.3443 11.86C15.9786 12.0891 15.6168 12.2018 15.2589 12.2018C14.7843 12.2018 14.3564 11.9338 13.9829 11.4018C13.5278 10.7494 13.0609 10.3261 12.5863 10.1241C12.6836 10.0271 12.8042 9.97658 12.9442 9.97658C13.1232 9.97658 13.4227 10.1164 13.8507 10.3921C14.2747 10.6678 14.547 10.8076 14.6676 10.8076C14.7649 10.8076 14.9282 10.6678 15.1578 10.3921C15.3873 10.1164 15.6363 9.97658 15.9164 9.97658C16.5699 9.97658 16.8967 10.3222 16.8967 11.0134" fill="#C5432B"/>
</svg>
