<svg width="32" height="32" viewBox="0 0 32 32" fill="none" xmlns="http://www.w3.org/2000/svg">
<path fill-rule="evenodd" clip-rule="evenodd" d="M22.5807 27.3099C18.263 29.5208 13.9167 29.5807 9.53906 27.3047L14.224 19.3229C15.2891 19.9557 16.5391 19.9609 17.9714 19.3255L22.5807 27.3099ZM16 0C20.4193 0 24.4193 1.79167 27.3125 4.6875C30.2083 7.58333 32 11.5833 32 16C32 20.4193 30.2083 24.4193 27.3125 27.3125C24.4167 30.2083 20.4167 32 16 32C11.5833 32 7.58073 30.2083 4.6875 27.3125C1.79167 24.4193 0 20.4193 0 16C0 11.5807 1.79167 7.58073 4.6875 4.6875C7.58073 1.79167 11.5807 0 16 0ZM26.4401 5.5599C23.7682 2.88802 20.0781 1.23438 16 1.23438C11.9219 1.23438 8.23177 2.88802 5.5599 5.5599C2.88802 8.23177 1.23438 11.9219 1.23438 16C1.23438 20.0781 2.88802 23.7682 5.5599 26.4401C8.23177 29.112 11.9219 30.7656 16 30.7656C20.0781 30.7656 23.7682 29.112 26.4401 26.4401C29.112 23.7682 30.7656 20.0781 30.7656 16C30.7656 11.9219 29.112 8.23177 26.4401 5.5599ZM22.513 4.61719C26.5859 7.25 28.8125 10.9844 29.0286 15.9141L19.7708 15.849C19.7865 14.6094 19.1667 13.526 17.901 12.6042L22.513 4.61719ZM16.0156 13.6484C17.4036 13.6484 18.5286 14.7734 18.5286 16.1615C18.5286 17.5495 17.4036 18.6745 16.0156 18.6745C14.6276 18.6745 13.5026 17.5495 13.5026 16.1615C13.5026 14.7734 14.6276 13.6484 16.0156 13.6484ZM3.0026 15.9714C3.24479 11.1276 5.36719 7.33333 9.52865 4.67969L14.1016 12.7292C13.0208 13.3359 12.3932 14.4141 12.2266 15.9714H3.0026Z" fill="black"/>
</svg>
