<svg width="32" height="32" viewBox="0 0 32 32" fill="none" xmlns="http://www.w3.org/2000/svg">
<path d="M16 0.5C24.5604 0.5 31.5 7.43959 31.5 16C31.5 24.5604 24.5604 31.5 16 31.5C7.43959 31.5 0.5 24.5604 0.5 16C0.5 7.43959 7.43959 0.5 16 0.5Z" stroke="#1971CE"/>
<path d="M20.4255 23.3658C19.3746 24.4553 18.0803 25 16.5425 25C14.8167 25 13.4476 24.3984 12.4349 23.1944C11.4782 22.0478 11 20.5862 11 18.8094C11 16.8987 11.816 14.7196 13.4476 12.2736C14.7787 10.2677 16.3449 8.50963 18.1457 7C17.883 8.22314 17.7521 9.09223 17.7521 9.60819C17.7521 10.7933 18.1174 11.9491 18.8489 13.0766C19.7493 14.414 20.4334 15.4085 20.9028 16.0574C21.6343 17.1853 22 18.2838 22 19.3532C22 20.9396 21.4751 22.2771 20.4253 23.3659L20.4255 23.3658ZM20.397 17.2465C20.1158 16.6065 19.7874 16.1815 19.4122 15.9709C19.4684 16.0859 19.4967 16.2482 19.4967 16.4585C19.4967 16.8599 19.3843 17.4328 19.1589 18.178L18.7936 19.3246C18.7936 19.9933 19.1211 20.3279 19.7779 20.3279C20.4716 20.3279 20.8189 19.8594 20.8189 18.9232C20.8189 18.4459 20.6784 17.8872 20.397 17.2462" fill="#1971CE"/>
</svg>
