<svg width="32" height="32" viewBox="0 0 32 32" fill="none" xmlns="http://www.w3.org/2000/svg">
<path d="M16 0.5C24.5604 0.5 31.5 7.43959 31.5 16C31.5 24.5604 24.5604 31.5 16 31.5C7.43959 31.5 0.5 24.5604 0.5 16C0.5 7.43959 7.43959 0.5 16 0.5Z" stroke="#E4D4A6"/>
<path d="M26.9923 17.6195C25.4777 16.7706 24.509 16.3461 24.0823 16.3461C23.7709 16.3461 23.5287 16.5832 23.3558 17.0574C23.1828 17.5315 22.833 17.7648 22.3102 17.7648C22.0949 17.7648 21.6605 17.6883 20.9993 17.5354C20.6303 18.0937 20.4457 18.4532 20.4457 18.6061C20.4457 18.8203 20.6034 19.0688 20.9224 19.3595C21.2415 19.6501 21.5067 19.7916 21.7258 19.7916C21.8642 19.7916 22.0526 19.7648 22.2909 19.7036C22.5293 19.6463 22.6869 19.6157 22.7676 19.6157C23.0059 19.6157 23.1251 20.0516 23.1251 20.9197C23.1251 21.7495 22.9329 23.0229 22.5446 24.74C22.0411 22.7706 21.5067 21.7878 20.9455 21.7878C20.8686 21.7878 20.7071 21.8451 20.465 21.9637C20.2228 22.0784 20.0421 22.1358 19.9268 22.1358C19.3655 22.1358 18.862 21.6233 18.4122 20.6023C17.5204 20.7361 17.0744 21.1912 17.0744 21.9637C17.0744 22.3499 17.2551 22.6597 17.6126 22.8891C17.9701 23.1224 18.1508 23.2868 18.1508 23.3824C18.1508 23.9025 17.3858 24.7055 15.852 25.7839C15.037 26.3614 14.4758 26.7667 14.1644 27C14.4335 26.652 14.7064 26.2008 14.9794 25.6386C15.2908 25.0038 15.4445 24.5105 15.4445 24.1625C15.4445 23.9713 15.2216 23.6998 14.7756 23.3518C14.3297 23.0038 14.1068 22.6367 14.1068 22.2505C14.1068 21.9216 14.2221 21.5163 14.4566 21.0344C14.2029 20.7438 13.903 20.5985 13.5532 20.5985C12.7767 20.5985 12.3884 20.8509 12.3884 21.3518C12.3884 21.0038 12.3884 21.2639 12.3884 22.1319C12.4077 22.7706 11.9233 23.088 10.9315 23.088C10.1742 23.088 8.90564 22.912 7.11812 22.5679C9.13629 22.0669 10.1435 21.4857 10.1435 20.8317C10.1435 20.9082 10.105 20.6788 10.0281 20.1358C9.95125 19.5392 10.3779 18.9962 11.3082 18.5143C11.1352 17.6272 10.6701 17.1836 9.91281 17.1836C9.79748 17.1836 9.58221 17.3862 9.27468 17.7916C8.96331 18.1969 8.675 18.3996 8.40206 18.3996C7.93692 18.3996 7.33339 17.8987 6.59916 16.8929C6.24934 16.392 5.71501 15.6501 5 14.6635C5.44592 14.8967 5.89184 15.1262 6.33776 15.3595C6.91822 15.631 7.38721 15.7648 7.73318 15.7648C8.00612 15.7648 8.27136 15.5277 8.53276 15.0535C8.79416 14.5793 9.14014 14.3423 9.56684 14.3423C9.6245 14.3423 10.0128 14.457 10.7316 14.6902C11.1006 14.1319 11.2852 13.7151 11.2852 13.4436C11.2852 13.2103 11.1429 12.9465 10.8623 12.6482C10.5817 12.3499 10.3241 12.2008 10.0896 12.2008C9.99353 12.2008 9.84361 12.2314 9.63987 12.2887C9.43613 12.3461 9.28621 12.3767 9.19011 12.3767C8.84029 12.3767 8.66731 11.9407 8.66731 11.0727C8.66731 10.8394 8.89027 9.52008 9.33619 7.10707C9.31697 7.39771 9.44382 7.9369 9.71291 8.72849C10.0435 9.69216 10.4318 10.1778 10.8777 10.1778C10.9546 10.1778 11.1122 10.1205 11.3428 10.0057C11.5773 9.89101 11.758 9.83365 11.8964 9.83365C12.3423 9.83365 12.7113 10.086 13.0035 10.587L13.4417 11.3671C13.8492 11.3671 14.1875 11.2218 14.4604 10.935C14.7334 10.6444 14.8679 10.2964 14.8679 9.89101C14.8679 9.46654 14.6872 9.14149 14.3297 8.91969C13.9684 8.6979 13.7915 8.52964 13.7915 8.41491C13.7915 8.00956 14.4335 7.32505 15.7136 6.36138C16.74 5.58891 17.4127 5.13767 17.7203 5C16.8861 6.12046 16.4671 6.93881 16.4671 7.45889C16.4671 7.7304 16.6324 8.01721 16.963 8.32696C17.3704 8.69407 17.6049 8.95411 17.6626 9.10707C17.8548 9.55067 17.8356 10.1587 17.6049 10.9312C18.1277 11.2983 18.5275 11.4818 18.7966 11.4818C19.3579 11.4818 19.6385 11.1912 19.6385 10.6138C19.6385 10.5564 19.6154 10.3728 19.5654 10.0631C19.5155 9.75335 19.5039 9.58126 19.5232 9.54302C19.6 9.27151 20.1344 9.13767 21.1223 9.13767C21.7451 9.13767 23.0329 9.30975 24.9934 9.65774C24.5667 9.77247 23.9247 9.94838 23.0713 10.1778C22.2948 10.4111 21.9065 10.6711 21.9065 10.9579C21.9065 11.0918 21.9565 11.325 22.0526 11.6539C22.1487 11.9828 22.1987 12.2237 22.1987 12.3767C22.1987 12.6482 22.0257 12.8967 21.6759 13.13L20.6879 13.826C20.9224 14.2505 21.0762 14.5029 21.1531 14.5793C21.3453 14.8126 21.6105 14.9273 21.9373 14.9273C22.1718 14.9273 22.3832 14.7247 22.5792 14.3193C22.7714 13.914 23.0828 13.7113 23.5095 13.7113C24.0323 13.7113 24.6243 14.1931 25.2855 15.1606C25.6546 15.7036 26.2273 16.522 27 17.6233L26.9923 17.6195ZM20.5418 15.9446C20.5418 14.7094 20.0844 13.6386 19.1733 12.7323C18.2623 11.826 17.1859 11.3709 15.9443 11.3709C14.6834 11.3709 13.5955 11.8184 12.6844 12.717C11.7734 13.6157 11.3082 14.6902 11.289 15.9446C11.2698 17.1797 11.7311 18.2467 12.6729 19.1415C13.6147 20.0402 14.7064 20.4876 15.9481 20.4876C17.2666 20.4876 18.3699 20.0593 19.2502 19.1989C20.1344 18.3423 20.5649 17.2562 20.5457 15.9446H20.5418ZM20.1075 15.9446C20.1075 17.1224 19.7115 18.0975 18.9158 18.8662C18.12 19.6386 17.1321 20.0249 15.9481 20.0249C14.8026 20.0249 13.8223 19.631 13.0112 18.8394C12.1962 18.0478 11.7887 17.0841 11.7887 15.9446C11.7887 14.8241 12.2001 13.8642 13.0266 13.065C13.853 12.2658 14.8256 11.8642 15.9519 11.8642C17.0783 11.8642 18.0508 12.2696 18.8773 13.0803C19.7 13.891 20.1151 14.847 20.1151 15.9446" fill="#E4D4A6"/>
</svg>
